# xmcd
#
# Track frame offsets:
#	150
#	562
#	24119
#	50591
#	91763
#	114280
#	120167
#	127959
#	132646
#	136703
#	137550
#	154347
#	191139
#	226376
#
# Disc length: 3256 seconds
#
# Revision: 1
# Processed by: cddbd v1.5.1PL0 Copyright (c) Steve Scherf et al.
# Submitted via: CDmax 2.0
#
DISCID=aa0cb60e
DTITLE=Various Artist - we didn't come here to make friends (a 200 lb. underground c
DTITLE=omp)
DYEAR=2005
DGENRE=Blues
TTITLE0=fritz normandy - the freedom of abridged speech
TTITLE1=pengo - do you feel the magic?
TTITLE2=mouthus - are there for the silos
TTITLE3=dremcron - sweetheart autopsy
TTITLE4=magik markers - knuckle down or you're dead
TTITLE5=residual echoes - two shakes for sole
TTITLE6=the demars - maitoa ma joun
TTITLE7=the demars - vanhan mummon kehtolaula
TTITLE8=the demars - vanha kassi
TTITLE9=the demars - sikala
TTITLE10=humectant interruption - peecker medley
TTITLE11=pissed jeans - hitler was a nazi
TTITLE12=double leopards - draun
TTITLE13=chris bozzone - falling on dead rainbows
EXTD=
EXTT0=
EXTT1=
EXTT2=
EXTT3=
EXTT4=
EXTT5=
EXTT6=
EXTT7=
EXTT8=
EXTT9=
EXTT10=
EXTT11=
EXTT12=
EXTT13=
PLAYORDER=
